<?xml version="1.0" standalone="no"?>
<!DOCTYPE svg PUBLIC "-//W3C//DTD SVG 20010904//EN"
 "http://www.w3.org/TR/2001/REC-SVG-20010904/DTD/svg10.dtd">
<svg version="1.0" xmlns="http://www.w3.org/2000/svg"
 width="300.000000pt" height="80.000000pt" viewBox="0 0 300.000000 80.000000"
 preserveAspectRatio="xMidYMid meet">

<g transform="translate(0.000000,80.000000) scale(0.100000,-0.100000)"
fill="#000000" stroke="none">
<path d="M307 733 c-4 -3 -24 -9 -44 -12 l-38 -6 -3 -213 c-2 -183 0 -213 13
-217 8 -3 22 -7 30 -10 12 -3 11 -13 -9 -55 -13 -28 -22 -60 -19 -71 13 -49
90 -74 147 -48 30 14 56 65 56 108 0 40 -20 40 -43 1 -21 -35 -61 -41 -77 -11
-13 26 -13 321 1 397 6 32 17 69 25 81 22 35 18 63 -9 63 -13 0 -27 -3 -30 -7z"/>
<path d="M2192 614 c-16 -11 -21 -24 -19 -47 2 -26 -2 -33 -21 -35 -47 -7 -54
-82 -7 -82 32 0 39 -28 33 -130 -4 -65 -9 -86 -31 -118 -36 -51 -35 -65 3 -57
25 5 37 1 66 -24 26 -24 44 -31 75 -31 54 0 75 13 89 56 15 45 0 67 -28 41
-10 -9 -30 -17 -44 -17 -39 0 -49 38 -46 165 l3 110 35 5 c31 4 35 9 38 37 3
30 1 32 -35 35 -37 3 -38 5 -41 43 -2 22 -10 46 -19 53 -21 15 -24 15 -51 -4z"/>
<path d="M2551 543 c-62 -12 -90 -50 -122 -166 -35 -127 -34 -120 -11 -113 27
9 35 -6 17 -30 -15 -20 -20 -64 -7 -64 4 0 18 7 30 16 26 18 45 10 37 -17 -16
-50 24 -79 106 -79 45 0 55 4 86 35 29 29 34 40 31 72 -2 32 -7 39 -27 41 -18
3 -33 -6 -57 -34 -29 -35 -34 -38 -60 -29 -24 9 -30 18 -36 55 -12 68 -9 70
81 70 98 0 122 9 150 53 30 48 28 68 -6 65 -24 -3 -30 3 -50 44 -12 26 -33 54
-45 61 -27 17 -82 26 -117 20z m79 -93 c11 -11 20 -33 20 -50 0 -29 -1 -30
-50 -30 -55 0 -67 11 -56 55 6 22 32 42 59 44 4 1 16 -8 27 -19z"/>
<path d="M2856 528 c-23 -33 -21 -75 5 -83 46 -15 97 44 72 84 -16 26 -59 26
-77 -1z"/>
<path d="M937 533 c-15 -4 -67 -79 -67 -98 0 -4 18 -5 40 -1 47 7 41 16 92
-144 l34 -105 32 3 c37 4 37 4 15 -43 -15 -31 -15 -37 -3 -45 43 -27 57 -7
107 151 61 195 75 249 69 265 -7 18 -60 18 -96 -1 -54 -28 -82 -95 -40 -95 24
0 24 0 2 -79 -17 -61 -42 -93 -42 -55 0 22 -59 227 -68 236 -10 10 -55 17 -75
11z"/>
<path d="M1404 530 c-67 -21 -107 -112 -56 -131 23 -9 29 -4 70 45 7 9 19 16
27 16 23 0 55 -38 55 -65 0 -20 -5 -25 -24 -25 -36 0 -108 -28 -133 -52 -13
-12 -37 -46 -54 -76 -30 -53 -33 -87 -6 -76 8 3 32 -13 54 -36 34 -33 47 -40
80 -40 21 0 48 7 60 15 18 13 22 13 33 0 21 -25 68 -18 101 14 37 38 39 66 4
57 -23 -6 -25 -4 -25 31 0 23 10 54 25 78 13 22 25 50 25 63 0 19 -3 21 -19
13 -21 -12 -31 2 -31 43 0 90 -94 153 -186 126z m86 -275 c0 -60 -16 -85 -55
-85 -41 0 -61 74 -32 113 12 18 66 38 80 30 4 -2 7 -28 7 -58z"/>
<path d="M615 516 c-36 -17 -155 -148 -155 -170 0 -11 9 -16 29 -16 34 0 37
-5 46 -103 5 -51 13 -75 32 -97 27 -33 54 -38 73 -15 19 23 40 18 40 -9 0 -14
4 -27 10 -31 18 -11 80 24 100 57 24 40 27 93 4 102 -20 8 -35 -1 -69 -42 -49
-59 -98 -36 -99 46 l-1 47 95 5 95 5 3 68 c2 56 -1 75 -18 103 -38 60 -116 81
-185 50z m101 -81 c16 -16 24 -34 22 -48 -3 -19 -10 -22 -60 -25 -55 -3 -58
-2 -58 21 0 29 35 77 56 77 8 0 26 -11 40 -25z"/>
<path d="M1692 500 c-54 -39 -57 -70 -7 -70 l35 0 0 -158 c0 -110 4 -162 12
-170 17 -17 59 -15 86 4 25 18 30 54 6 54 -14 0 -15 17 -12 131 3 116 5 132
22 145 25 18 37 18 62 0 17 -13 19 -30 22 -173 2 -107 7 -160 15 -165 21 -13
64 -8 85 9 18 17 19 24 10 113 -5 52 -7 143 -4 203 3 65 1 107 -5 107 -5 0
-20 -7 -34 -16 -17 -11 -36 -14 -69 -9 -29 5 -57 3 -75 -5 -26 -10 -32 -9 -50
9 -28 28 -51 26 -99 -9z"/>
<path d="M61 236 c-26 -27 -22 -59 9 -76 26 -14 48 -3 66 31 30 59 -29 94 -75
45z"/>
</g>
</svg>
